<?xml version="1.0" standalone="no"?>
<!DOCTYPE svg PUBLIC "-//W3C//DTD SVG 20010904//EN"
 "http://www.w3.org/TR/2001/REC-SVG-20010904/DTD/svg10.dtd">
<svg version="1.0" xmlns="http://www.w3.org/2000/svg"
 width="512.000000pt" height="512.000000pt" viewBox="0 0 512.000000 512.000000"
 preserveAspectRatio="xMidYMid meet">
<metadata>
Created by potrace 1.11, written by Peter Selinger 2001-2013
</metadata>
<g transform="translate(0.000000,512.000000) scale(0.100000,-0.100000)"
fill="#000000" stroke="none">
<path d="M810 4800 c0 -5 -7 -7 -15 -4 -17 7 -53 -26 -291 -266 -93 -94 -174
-182 -181 -197 -16 -38 -16 -78 1 -111 8 -15 98 -110 200 -212 102 -102 186
-190 186 -195 0 -6 -21 -44 -46 -85 -154 -248 -260 -535 -310 -845 -22 -133
-25 -506 -6 -625 7 -41 15 -91 18 -110 13 -80 67 -272 106 -375 47 -126 108
-252 185 -378 29 -48 53 -91 53 -95 0 -4 -76 -83 -169 -176 -94 -94 -168 -173
-165 -178 3 -5 0 -7 -6 -6 -19 5 -51 -46 -57 -89 -3 -25 0 -50 10 -69 8 -16
113 -127 232 -246 178 -178 223 -219 252 -224 70 -13 99 7 299 207 104 104
192 189 196 189 4 0 49 -25 100 -57 244 -148 527 -250 833 -299 152 -25 505
-25 660 0 141 22 311 66 439 113 118 43 324 144 413 202 34 23 66 41 70 41 4
0 84 -77 177 -170 93 -93 173 -167 178 -164 5 3 7 0 6 -7 -5 -19 61 -59 96
-59 17 1 44 6 59 13 15 7 127 111 247 231 207 208 220 222 226 265 5 29 3 46
-4 49 -6 2 -8 10 -6 17 7 17 -204 237 -219 228 -6 -3 -7 -2 -4 4 4 5 -32 47
-78 93 -47 45 -85 86 -85 91 0 4 23 45 51 91 67 108 136 249 182 368 35 91
100 327 111 400 3 19 11 69 17 110 19 115 16 471 -5 610 -45 296 -151 589
-304 841 -28 48 -52 91 -52 95 0 5 88 97 196 206 138 138 195 201 191 212 -4
9 -2 16 3 16 13 0 13 42 -1 77 -16 42 -436 460 -476 474 -41 13 -85 6 -120
-19 -15 -12 -107 -100 -203 -196 -96 -97 -178 -176 -183 -176 -4 0 -52 27
-105 59 -246 148 -526 249 -827 297 -116 18 -447 25 -556 12 -356 -45 -654
-147 -940 -323 l-86 -53 -189 189 c-104 104 -203 196 -221 204 -35 17 -83 20
-83 5z"/>
</g>
</svg>
